<!DOCTYPE svg PUBLIC "-//W3C//DTD SVG 1.1//EN" "http://www.w3.org/Graphics/SVG/1.1/DTD/svg11.dtd">
<!-- Uploaded to: SVG Repo, www.svgrepo.com, Transformed by: SVG Repo Mixer Tools -->
<svg fill="#2cb011" height="64px" width="64px" version="1.1" id="Layer_1" xmlns="http://www.w3.org/2000/svg" xmlns:xlink="http://www.w3.org/1999/xlink" viewBox="0 0 512 512" xml:space="preserve">
<g id="SVGRepo_bgCarrier" stroke-width="0"/>
<g id="SVGRepo_tracerCarrier" stroke-linecap="round" stroke-linejoin="round" stroke="#CCCCCC" stroke-width="16.384"> <g> <g> <g> <path d="M21.333,192h469.333c11.782,0,21.333-9.551,21.333-21.333c0-11.782-9.551-21.333-21.333-21.333H21.333 C9.551,149.333,0,158.885,0,170.667C0,182.449,9.551,192,21.333,192z"/> <path d="M490.667,320H21.333C9.551,320,0,329.551,0,341.333c0,11.782,9.551,21.333,21.333,21.333h469.333 c11.782,0,21.333-9.551,21.333-21.333C512,329.551,502.449,320,490.667,320z"/> </g> </g> </g> </g>
<g id="SVGRepo_iconCarrier"> <g> <g> <g> <path d="M21.333,192h469.333c11.782,0,21.333-9.551,21.333-21.333c0-11.782-9.551-21.333-21.333-21.333H21.333 C9.551,149.333,0,158.885,0,170.667C0,182.449,9.551,192,21.333,192z"/> <path d="M490.667,320H21.333C9.551,320,0,329.551,0,341.333c0,11.782,9.551,21.333,21.333,21.333h469.333 c11.782,0,21.333-9.551,21.333-21.333C512,329.551,502.449,320,490.667,320z"/> </g> </g> </g> </g>
</svg>